<svg xmlns="http://www.w3.org/2000/svg" id="unt-rb-cgf" viewBox="0 0 1400 1674" width="1400" height="1674" role="img" aria-labelledby="unt-rb-cgf-title unt-rb-cgf-desc">
<title id="unt-rb-cgf-title">RB-CGF network topology</title><desc id="unt-rb-cgf-desc">RB-CGF: Home network · UniFi Cloud Gateway Fiber. 5 VLANs with clients (1 Default, 2 Main Network, 3 IoT Devices, 4 Servers, 20 Home Lab Servers); 2 more with none (5 Local Devices, 10 Guest Network). 12 UniFi devices, 7 networks, 38 clients.</desc>
<style>
#unt-rb-cgf{--t-paper:var(--paper,#ffffff);--t-white:var(--white,#f4f4f4);--t-ink:var(--ink,#171a20);--t-ink-soft:var(--ink-soft,#515358);--t-muted:var(--muted,#6b6c70);--t-faint:var(--faint,#8b8d90);--t-rule:var(--rule,#e1e1e2);--t-accent:var(--accent,#3e6ae1);--t-serif:var(--bp-font-header,"Instrument Serif","Iowan Old Style",Georgia,serif);--t-body:var(--bp-font-body,Spectral,Georgia,serif);--t-ease:var(--ease,cubic-bezier(.22,.9,.28,1))}
@media (prefers-color-scheme:dark){#unt-rb-cgf{--t-paper:var(--paper,#000000);--t-white:var(--white,#141414);--t-ink:var(--ink,#ffffff);--t-ink-soft:var(--ink-soft,#bfbfbf);--t-muted:var(--muted,#a3a3a3);--t-faint:var(--faint,#808080);--t-rule:var(--rule,#212121);--t-accent:var(--accent,#3e6ae1)}}
#unt-rb-cgf text{font-family:var(--t-body);fill:var(--t-ink);font-variant-numeric:lining-nums}
#unt-rb-cgf .bg{fill:var(--t-paper)}
#unt-rb-cgf .gf{fill:none;stroke:var(--t-ink);stroke-opacity:.045}
#unt-rb-cgf .gc{fill:none;stroke:var(--t-ink);stroke-opacity:.085}
#unt-rb-cgf .frame{fill:none;stroke:var(--t-rule)}
#unt-rb-cgf .h1{font-family:var(--t-serif);font-size:48px;letter-spacing:-.02em}
#unt-rb-cgf .sub{font-size:16px;font-style:italic;fill:var(--t-ink-soft)}
#unt-rb-cgf .hrule{stroke:var(--t-ink);stroke-width:2}
#unt-rb-cgf .tb rect,#unt-rb-cgf .icell rect{fill:var(--t-white);stroke:var(--t-rule)}
#unt-rb-cgf .tbv{font-family:var(--t-serif);font-size:30px;font-variant-numeric:lining-nums tabular-nums}
#unt-rb-cgf .cap{font-size:11px;letter-spacing:.14em;fill:var(--t-muted)}
#unt-rb-cgf .note{font-size:12px;font-style:italic;fill:var(--t-muted)}
#unt-rb-cgf .leg{font-size:13px;fill:var(--t-ink-soft)}
#unt-rb-cgf .ibg{fill:var(--t-white);stroke:var(--t-rule);transition:stroke .35s var(--t-ease)}
#unt-rb-cgf .infra:hover .ibg{stroke:var(--t-ink)}
#unt-rb-cgf .gw .ibg{stroke:var(--t-accent);stroke-width:1.5}
#unt-rb-cgf .ico{stroke:var(--t-ink-soft);color:var(--t-ink-soft);transition:stroke .35s var(--t-ease),color .35s var(--t-ease)}
#unt-rb-cgf .infra .ico{stroke:var(--t-ink);color:var(--t-ink)}
#unt-rb-cgf .gw .ico{stroke:var(--t-accent);color:var(--t-accent)}
#unt-rb-cgf .halo{fill:none;stroke:var(--t-accent);animation:unt-halo 3.2s var(--t-ease) infinite}
#unt-rb-cgf .iname2{font-family:var(--t-serif);font-size:20px}
#unt-rb-cgf .iname,#unt-rb-cgf .nname{font-size:13px;font-weight:500}
#unt-rb-cgf .imodel,#unt-rb-cgf .nsub{font-size:12px;font-style:italic;fill:var(--t-muted)}
#unt-rb-cgf .imeta{font-size:12px;letter-spacing:.06em;fill:var(--t-muted);font-variant-numeric:lining-nums tabular-nums}
#unt-rb-cgf .aptags rect{fill:var(--t-paper);stroke:var(--t-rule)}
#unt-rb-cgf .aptags text{font-size:11px;letter-spacing:.06em;fill:var(--t-accent);font-variant-numeric:lining-nums tabular-nums}
#unt-rb-cgf .wire{fill:none;stroke:var(--t-ink-soft);stroke-opacity:.4}
#unt-rb-cgf .fl{fill:none;stroke:var(--t-accent)}
#unt-rb-cgf .sp10{stroke-width:3.2}#unt-rb-cgf .sp25{stroke-width:2.4}#unt-rb-cgf .sp1{stroke-width:1.6}#unt-rb-cgf .spfe{stroke-width:1.2}
#unt-rb-cgf .wire.spfe{stroke-dasharray:5 4}
#unt-rb-cgf .flow{stroke-dasharray:2 11;stroke-linecap:round;animation:unt-flow 1.5s linear infinite}
#unt-rb-cgf .s10{animation-duration:.55s}#unt-rb-cgf .s25{animation-duration:.9s}#unt-rb-cgf .s1{animation-duration:1.5s}#unt-rb-cgf .sfe{animation-duration:2.8s}#unt-rb-cgf .drop{animation-duration:1.2s}
#unt-rb-cgf .pkt{fill:var(--t-accent)}
#unt-rb-cgf .tw{fill:none;stroke:var(--t-ink-soft);stroke-opacity:.3;stroke-width:1.4}
#unt-rb-cgf .tf{fill:none;stroke:var(--t-accent);stroke-width:1.4}
#unt-rb-cgf .tend{fill:var(--t-accent);stroke:var(--t-paper);stroke-width:1.5}
#unt-rb-cgf .hub{fill:var(--t-ink);stroke:var(--t-paper);stroke-width:2}
#unt-rb-cgf .rbox{fill:none;stroke:var(--t-faint);stroke-dasharray:5 4}
#unt-rb-cgf .vpn{fill:none;stroke:var(--t-accent);stroke-width:1.5;stroke-dasharray:2 7;animation-duration:2.2s}
#unt-rb-cgf .zone{transition:opacity .35s var(--t-ease)}
#unt-rb-cgf:has(.zone:hover) .zone:not(:hover){opacity:.3}
#unt-rb-cgf .zbg{fill:var(--t-white);stroke:var(--t-rule);transition:stroke .35s var(--t-ease)}
#unt-rb-cgf .zone:hover .zbg,#unt-rb-cgf .icell:hover rect{stroke:var(--t-ink)}
#unt-rb-cgf .zrule{stroke:var(--t-rule)}
#unt-rb-cgf .zidx{font-size:13px;letter-spacing:.22em;fill:var(--t-accent);font-variant-numeric:lining-nums tabular-nums}
#unt-rb-cgf .zname{font-family:var(--t-serif);font-size:24px}
#unt-rb-cgf .zmeta{font-size:11px;letter-spacing:.12em;fill:var(--t-muted);font-variant-numeric:lining-nums tabular-nums}
#unt-rb-cgf .tbg{fill:var(--t-paper);stroke:var(--t-rule);transition:stroke .35s var(--t-ease)}
#unt-rb-cgf .tbg.off{fill:none;stroke-dasharray:3 3}
#unt-rb-cgf .tile:hover .tbg,#unt-rb-cgf .named:hover .tbg{stroke:var(--t-ink)}
#unt-rb-cgf .tile:hover .ico,#unt-rb-cgf .named:hover .ico{stroke:var(--t-ink);color:var(--t-ink)}
#unt-rb-cgf .offg>g{opacity:.42}#unt-rb-cgf .offm image{opacity:.45}
#unt-rb-cgf .bcast{stroke:var(--t-accent)}#unt-rb-cgf .bdot{fill:var(--t-accent)}
#unt-rb-cgf .bcast .w1{animation:unt-bc 2.4s ease-in-out infinite}
#unt-rb-cgf .bcast .w2{animation:unt-bc 2.4s ease-in-out .35s infinite}
@keyframes unt-flow{to{stroke-dashoffset:-26}}
@keyframes unt-halo{0%{opacity:.6;stroke-width:1}100%{opacity:0;stroke-width:12}}
@keyframes unt-bc{0%,100%{opacity:.25}40%{opacity:1}}
@media (prefers-reduced-motion:reduce){#unt-rb-cgf .flow,#unt-rb-cgf .bcast path{animation:none}#unt-rb-cgf .halo{animation:none;opacity:0}#unt-rb-cgf .pkt{display:none}#unt-rb-cgf *{transition:none}}
</style>
<defs><pattern id="unt-rb-cgf-g16" width="16" height="16" patternUnits="userSpaceOnUse"><path d="M16 0H0V16" class="gf"/></pattern>
<pattern id="unt-rb-cgf-g96" width="96" height="96" patternUnits="userSpaceOnUse"><rect width="96" height="96" fill="url(#unt-rb-cgf-g16)"/><path d="M96 0H0V96" class="gc"/></pattern></defs>
<rect width="1400" height="1674" class="bg"/><rect x="12" y="12" width="1376" height="1650" fill="url(#unt-rb-cgf-g96)"/><rect x="12.5" y="12.5" width="1375" height="1649" class="frame"/>
<g id="rb-cgf">
<text x="30" y="72" class="h1">RB-CGF</text><text x="30" y="98" class="sub">Home network · UniFi Cloud Gateway Fiber</text>
<g class="tb"><rect x="950" y="28" width="140" height="64"/><text x="964" y="50" class="cap">UNIFI DEVICES</text><text x="964" y="81" class="tbv">12</text><rect x="1090" y="28" width="140" height="64"/><text x="1104" y="50" class="cap">NETWORKS</text><text x="1104" y="81" class="tbv">7</text><rect x="1230" y="28" width="140" height="64"/><text x="1244" y="50" class="cap">CLIENTS</text><text x="1244" y="81" class="tbv">38</text></g>
<line x1="30" x2="1370" y1="112" y2="112" class="hrule"/>
<g class="links">
<path d="M700.0,212.0 C700.0,224.0 700.0,224.0 700.0,236.0" class="wire sp25"/>
<path id="rb-cgf-l0" d="M700.0,212.0 C700.0,224.0 700.0,224.0 700.0,236.0" class="fl sp25 flow s25"/>
<circle r="2.6" class="pkt"><animateMotion dur="3.4s" begin="-0.00s" repeatCount="indefinite"><mpath href="#rb-cgf-l0"/></animateMotion></circle>
<path d="M700.0,326.0 C700.0,339.0 700.0,339.0 700.0,352.0" class="wire sp10"/>
<path id="rb-cgf-l1" d="M700.0,326.0 C700.0,339.0 700.0,339.0 700.0,352.0" class="fl sp10 flow s10"/>
<circle r="2.6" class="pkt"><animateMotion dur="2.2s" begin="-0.53s" repeatCount="indefinite"><mpath href="#rb-cgf-l1"/></animateMotion></circle>
<path d="M700.0,442.0 C700.0,507.5 210,507.5 210,573.0" class="wire spfe"/>
<path id="rb-cgf-l2" d="M700.0,442.0 C700.0,507.5 210,507.5 210,573.0" class="fl spfe flow sfe"/>
<circle r="2.6" class="pkt"><animateMotion dur="9s" begin="-1.06s" repeatCount="indefinite"><mpath href="#rb-cgf-l2"/></animateMotion></circle>
<path d="M700.0,442.0 C700.0,507.5 430,507.5 430,573.0" class="wire sp1"/>
<path id="rb-cgf-l3" d="M700.0,442.0 C700.0,507.5 430,507.5 430,573.0" class="fl sp1 flow s1"/>
<circle r="2.6" class="pkt"><animateMotion dur="5.5s" begin="-1.59s" repeatCount="indefinite"><mpath href="#rb-cgf-l3"/></animateMotion></circle>
<path d="M700.0,442.0 C700.0,507.5 970,507.5 970,573.0" class="wire sp25"/>
<path id="rb-cgf-l4" d="M700.0,442.0 C700.0,507.5 970,507.5 970,573.0" class="fl sp25 flow s25"/>
<circle r="2.6" class="pkt"><animateMotion dur="3.4s" begin="-2.12s" repeatCount="indefinite"><mpath href="#rb-cgf-l4"/></animateMotion></circle>
<path d="M700.0,442.0 C700.0,507.5 1190,507.5 1190,573.0" class="wire sp25"/>
<path id="rb-cgf-l5" d="M700.0,442.0 C700.0,507.5 1190,507.5 1190,573.0" class="fl sp25 flow s25"/>
<circle r="2.6" class="pkt"><animateMotion dur="3.4s" begin="-2.65s" repeatCount="indefinite"><mpath href="#rb-cgf-l5"/></animateMotion></circle>
</g>
<g class="remote"><title>Remote access over VPN · 5 device(s)</title>
<rect x="910.0" y="124" width="242" height="68" class="rbox"/>
<text x="910" y="212" class="cap">REMOTE ACCESS · VPN</text>
<g class="tile"><title>Phone</title><rect x="930.0" y="141" width="36" height="36" class="tbg"/><g transform="translate(937.5,148.5) scale(0.8750)" fill="none" class="ico" stroke-width="1.7" stroke-linecap="round" stroke-linejoin="round"><rect x="7" y="2.5" width="10" height="19" rx="2.5"/><path d="M11 18.5h2"/></g></g>
<g class="tile"><title>Unidentified device</title><rect x="970.0" y="141" width="36" height="36" class="tbg"/><g transform="translate(977.5,148.5) scale(0.8750)" fill="none" class="ico" stroke-width="1.7" stroke-linecap="round" stroke-linejoin="round"><rect x="4" y="4" width="16" height="16" rx="4"/><path d="M9.8 9.6a2.3 2.3 0 1 1 3.3 2.1c-.7.4-1.1.9-1.1 1.8"/><circle cx="12" cy="16.3" r=".9" fill="currentColor"/></g></g>
<g class="tile"><title>Unidentified device</title><rect x="1010.0" y="141" width="36" height="36" class="tbg"/><g transform="translate(1017.5,148.5) scale(0.8750)" fill="none" class="ico" stroke-width="1.7" stroke-linecap="round" stroke-linejoin="round"><rect x="4" y="4" width="16" height="16" rx="4"/><path d="M9.8 9.6a2.3 2.3 0 1 1 3.3 2.1c-.7.4-1.1.9-1.1 1.8"/><circle cx="12" cy="16.3" r=".9" fill="currentColor"/></g></g>
<g class="tile"><title>Laptop</title><rect x="1050.0" y="141" width="36" height="36" class="tbg"/><g transform="translate(1057.5,148.5) scale(0.8750)" fill="none" class="ico" stroke-width="1.7" stroke-linecap="round" stroke-linejoin="round"><rect x="5" y="5" width="14" height="10" rx="1.5"/><path d="M2.5 18.5h19l-1.5-3.5h-16z"/></g></g>
<g class="tile"><title>Laptop</title><rect x="1090.0" y="141" width="36" height="36" class="tbg"/><g transform="translate(1097.5,148.5) scale(0.8750)" fill="none" class="ico" stroke-width="1.7" stroke-linecap="round" stroke-linejoin="round"><rect x="5" y="5" width="14" height="10" rx="1.5"/><path d="M2.5 18.5h19l-1.5-3.5h-16z"/></g></g>
<path d="M910.0,158 L732.0,158" class="vpn flow"/>
</g>
<g class="infra"><title>Internet</title><circle cx="700.0" cy="158" r="28.0" class="ibg"/><g transform="translate(684.3,142.3) scale(1.3067)" fill="none" class="ico" stroke-width="1.5" stroke-linecap="round" stroke-linejoin="round"><circle cx="12" cy="12" r="9"/><ellipse cx="12" cy="12" rx="4" ry="9"/><path d="M3 12h18M5 7h14M5 17h14"/></g><text x="700.0" y="204.0" class="iname2" text-anchor="middle">Internet</text></g>
<g class="infra gw"><title>RB-CGF</title><rect x="662.0" y="230.0" width="76" height="76" class="halo"/><rect x="668.0" y="236.0" width="64" height="64" class="ibg"/><g transform="translate(682.1,250.1) scale(1.4933)" fill="none" class="ico" stroke-width="1.5" stroke-linecap="round" stroke-linejoin="round"><rect x="2" y="7" width="20" height="10" rx="2.5"/><circle cx="6.5" cy="12" r="1.2" fill="currentColor"/><path d="M10 12h9"/></g><text x="700.0" y="318.0" class="iname2" text-anchor="middle">RB-CGF</text></g>
<g class="infra"><title>USW Pro Max 16 PoE</title><rect x="668.0" y="352.0" width="64" height="64" class="ibg"/><g transform="translate(682.1,366.1) scale(1.4933)" fill="none" class="ico" stroke-width="1.5" stroke-linecap="round" stroke-linejoin="round"><rect x="1.5" y="7" width="21" height="10" rx="2"/><path d="M5 10.5v3M8 10.5v3M11 10.5v3M14 10.5v3M17 10.5v3M20 10.5v3"/></g><text x="700.0" y="434.0" class="iname2" text-anchor="middle">USW Pro Max 16 PoE</text></g>
<g class="infra"><title>UPS 2U</title><rect x="183.0" y="573.0" width="54" height="54" class="ibg"/><g transform="translate(194.9,584.9) scale(1.2600)" fill="none" class="ico" stroke-width="1.5" stroke-linecap="round" stroke-linejoin="round"><rect x="5" y="3" width="14" height="18" rx="2.5"/><path d="M13 7l-3 5h4l-3 5"/></g><text x="210.0" y="645.0" class="iname" text-anchor="middle">UPS 2U</text></g>
<g class="infra"><title>U6 Lite (Server Room) · Wi-Fi on: VLAN 2 Main Network, VLAN 3 IoT Devices</title><rect x="403.0" y="573.0" width="54" height="54" class="ibg"/><g transform="translate(414.9,584.9) scale(1.2600)" fill="none" class="ico" stroke-width="1.5" stroke-linecap="round" stroke-linejoin="round"><circle cx="12" cy="12" r="9"/><circle cx="12" cy="12" r="3"/></g><text x="430.0" y="645.0" class="iname" text-anchor="middle">U6 Lite</text><text x="430.0" y="660.0" class="imodel" text-anchor="middle">(Server Room)</text><g class="aptags"><rect x="404" y="671" width="24" height="17"/><text x="416" y="683.5" text-anchor="middle">02</text><rect x="432" y="671" width="24" height="17"/><text x="444" y="683.5" text-anchor="middle">03</text></g></g>
<g class="infra"><title>U7 Pro XG (Office AP) · Wi-Fi on: VLAN 1 Default, VLAN 2 Main Network, VLAN 3 IoT Devices, VLAN 10 Guest Network</title><rect x="943.0" y="573.0" width="54" height="54" class="ibg"/><g transform="translate(954.9,584.9) scale(1.2600)" fill="none" class="ico" stroke-width="1.5" stroke-linecap="round" stroke-linejoin="round"><circle cx="12" cy="12" r="9"/><circle cx="12" cy="12" r="3"/></g><text x="970.0" y="645.0" class="iname" text-anchor="middle">U7 Pro XG</text><text x="970.0" y="660.0" class="imodel" text-anchor="middle">(Office AP)</text><g class="aptags"><rect x="916" y="671" width="24" height="17"/><text x="928" y="683.5" text-anchor="middle">01</text><rect x="944" y="671" width="24" height="17"/><text x="956" y="683.5" text-anchor="middle">02</text><rect x="972" y="671" width="24" height="17"/><text x="984" y="683.5" text-anchor="middle">03</text><rect x="1000" y="671" width="24" height="17"/><text x="1012" y="683.5" text-anchor="middle">10</text></g></g>
<g class="infra"><title>U7 Pro XG (Living Room) · Wi-Fi on: VLAN 1 Default, VLAN 2 Main Network, VLAN 3 IoT Devices, VLAN 10 Guest Network</title><rect x="1163.0" y="573.0" width="54" height="54" class="ibg"/><g transform="translate(1174.9,584.9) scale(1.2600)" fill="none" class="ico" stroke-width="1.5" stroke-linecap="round" stroke-linejoin="round"><circle cx="12" cy="12" r="9"/><circle cx="12" cy="12" r="3"/></g><text x="1190.0" y="645.0" class="iname" text-anchor="middle">U7 Pro XG</text><text x="1190.0" y="660.0" class="imodel" text-anchor="middle">(Living Room)</text><g class="aptags"><rect x="1136" y="671" width="24" height="17"/><text x="1148" y="683.5" text-anchor="middle">01</text><rect x="1164" y="671" width="24" height="17"/><text x="1176" y="683.5" text-anchor="middle">02</text><rect x="1192" y="671" width="24" height="17"/><text x="1204" y="683.5" text-anchor="middle">03</text><rect x="1220" y="671" width="24" height="17"/><text x="1232" y="683.5" text-anchor="middle">10</text></g></g>
<g class="trunkg">
<text x="636.0" y="639.0" class="note" text-anchor="end">802.1Q VLAN trunk</text>
<path d="M700.0,442.0 C700.0,468.0 709.0,456.0 709.0,488.0 V1262.0 C709.0,1304.0 800.0,1296.0 800.0,1338.0" class="tw"/>
<path d="M700.0,442.0 C700.0,468.0 709.0,456.0 709.0,488.0 V1262.0 C709.0,1304.0 800.0,1296.0 800.0,1338.0" class="tf flow s1 drop" style="animation-delay:-0.0s"/>
<circle cx="800.0" cy="1338.0" r="3.5" class="tend"/>
<path d="M700.0,442.0 C700.0,468.0 691.0,456.0 691.0,488.0 V1001.0 C691.0,1043.0 600.0,1035.0 600.0,1077.0" class="tw"/>
<path d="M700.0,442.0 C700.0,468.0 691.0,456.0 691.0,488.0 V1001.0 C691.0,1043.0 600.0,1035.0 600.0,1077.0" class="tf flow s1 drop" style="animation-delay:-0.2s"/>
<circle cx="600.0" cy="1077.0" r="3.5" class="tend"/>
<path d="M700.0,442.0 C700.0,468.0 726.0,456.0 726.0,488.0 V936.0 C726.0,978.0 800.0,970.0 800.0,1012.0" class="tw"/>
<path d="M700.0,442.0 C700.0,468.0 726.0,456.0 726.0,488.0 V936.0 C726.0,978.0 800.0,970.0 800.0,1012.0" class="tf flow s1 drop" style="animation-delay:-0.4s"/>
<circle cx="800.0" cy="1012.0" r="3.5" class="tend"/>
<path d="M700.0,442.0 C700.0,468.0 674.0,456.0 674.0,488.0 V675.0 C674.0,717.0 600.0,709.0 600.0,751.0" class="tw"/>
<path d="M700.0,442.0 C700.0,468.0 674.0,456.0 674.0,488.0 V675.0 C674.0,717.0 600.0,709.0 600.0,751.0" class="tf flow s1 drop" style="animation-delay:-0.6s"/>
<circle cx="600.0" cy="751.0" r="3.5" class="tend"/>
<path d="M700.0,442.0 C700.0,468.0 743.0,456.0 743.0,488.0 V675.0 C743.0,717.0 800.0,709.0 800.0,751.0" class="tw"/>
<path d="M700.0,442.0 C700.0,468.0 743.0,456.0 743.0,488.0 V675.0 C743.0,717.0 800.0,709.0 800.0,751.0" class="tf flow s1 drop" style="animation-delay:-0.8s"/>
<circle cx="800.0" cy="751.0" r="3.5" class="tend"/>
<circle cx="700.0" cy="442.0" r="4.5" class="hub"/>
</g>
<g class="zone zv1"><title>VLAN 1 · Default</title><rect x="30" y="751" width="614" height="242" class="zbg"/><text x="48" y="781" class="zidx">01</text><text x="82" y="782" class="zname">Default</text><text x="600" y="780.5" class="zmeta" text-anchor="end">10.1.1.X  ·  5 DEVICES</text><g transform="translate(620,776) scale(0.95)" class="bcast" fill="none" stroke-width="1.8" stroke-linecap="round"><circle cx="0" cy="0" r="2" class="bdot"/><path class="w1" d="M-5,-4 a6.4,6.4 0 0 0 0,8 M5,-4 a6.4,6.4 0 0 1 0,8"/><path class="w2" d="M-9,-7 a11,11 0 0 0 0,14 M9,-7 a11,11 0 0 1 0,14"/></g><line x1="48" x2="626" y1="797" y2="797" class="zrule"/><g class="named"><title>Front Door</title><rect x="80.0" y="815.0" width="44" height="44" class="tbg"/><g transform="translate(89.0,824.0) scale(1.0833)" fill="none" class="ico" stroke-width="1.7" stroke-linecap="round" stroke-linejoin="round"><rect x="6" y="2.5" width="12" height="19" rx="1.5"/><circle cx="15" cy="12.5" r="1.1" fill="currentColor"/></g><text x="102.0" y="874.0" class="nname" text-anchor="middle">Front Door</text></g><g class="tile"><title>TV / streamer</title><rect x="46" y="929.0" width="36" height="36" class="tbg"/><g transform="translate(53.5,936.5) scale(0.8750)" fill="none" class="ico" stroke-width="1.7" stroke-linecap="round" stroke-linejoin="round"><rect x="2.5" y="4" width="19" height="12.5" rx="1.5"/><path d="M8 20l2-3.5M16 20l-2-3.5"/></g></g><g class="tile"><title>Game console</title><rect x="95" y="929.0" width="36" height="36" class="tbg"/><g transform="translate(102.5,936.5) scale(0.8750)" fill="none" class="ico" stroke-width="1.7" stroke-linecap="round" stroke-linejoin="round"><path d="M7 7.5h10a4.5 4.5 0 0 1 4.3 5.8l-1 3.2a2.4 2.4 0 0 1-4 .9L14.6 15.5H9.4l-1.7 1.9a2.4 2.4 0 0 1-4-.9l-1-3.2A4.5 4.5 0 0 1 7 7.5z"/><path d="M7.5 10.5v3M6 12h3"/><circle cx="16" cy="11" r=".9" fill="currentColor"/><circle cx="17.5" cy="13" r=".9" fill="currentColor"/></g></g><g class="tile"><title>Phone</title><rect x="144" y="929.0" width="36" height="36" class="tbg"/><g transform="translate(151.5,936.5) scale(0.8750)" fill="none" class="ico" stroke-width="1.7" stroke-linecap="round" stroke-linejoin="round"><rect x="7" y="2.5" width="10" height="19" rx="2.5"/><path d="M11 18.5h2"/></g></g><g class="tile"><title>Unidentified device</title><rect x="193" y="929.0" width="36" height="36" class="tbg"/><g transform="translate(200.5,936.5) scale(0.8750)" fill="none" class="ico" stroke-width="1.7" stroke-linecap="round" stroke-linejoin="round"><rect x="4" y="4" width="16" height="16" rx="4"/><path d="M9.8 9.6a2.3 2.3 0 1 1 3.3 2.1c-.7.4-1.1.9-1.1 1.8"/><circle cx="12" cy="16.3" r=".9" fill="currentColor"/></g></g></g>
<g class="zone zv2"><title>VLAN 2 · Main Network</title><rect x="756" y="751" width="614" height="177" class="zbg"/><text x="774" y="781" class="zidx">02</text><text x="808" y="782" class="zname">Main Network</text><text x="1326" y="780.5" class="zmeta" text-anchor="end">10.1.2.X  ·  16 DEVICES</text><g transform="translate(1346,776) scale(0.95)" class="bcast" fill="none" stroke-width="1.8" stroke-linecap="round"><circle cx="0" cy="0" r="2" class="bdot"/><path class="w1" d="M-5,-4 a6.4,6.4 0 0 0 0,8 M5,-4 a6.4,6.4 0 0 1 0,8"/><path class="w2" d="M-9,-7 a11,11 0 0 0 0,14 M9,-7 a11,11 0 0 1 0,14"/></g><line x1="774" x2="1352" y1="797" y2="797" class="zrule"/><g class="tile"><title>Phone</title><rect x="772.0" y="815.0" width="36" height="36" class="tbg"/><g transform="translate(779.5,822.5) scale(0.8750)" fill="none" class="ico" stroke-width="1.7" stroke-linecap="round" stroke-linejoin="round"><rect x="7" y="2.5" width="10" height="19" rx="2.5"/><path d="M11 18.5h2"/></g></g><g class="tile"><title>Phone</title><rect x="821.0" y="815.0" width="36" height="36" class="tbg"/><g transform="translate(828.5,822.5) scale(0.8750)" fill="none" class="ico" stroke-width="1.7" stroke-linecap="round" stroke-linejoin="round"><rect x="7" y="2.5" width="10" height="19" rx="2.5"/><path d="M11 18.5h2"/></g></g><g class="tile"><title>Tablet</title><rect x="870.0" y="815.0" width="36" height="36" class="tbg"/><g transform="translate(877.5,822.5) scale(0.8750)" fill="none" class="ico" stroke-width="1.7" stroke-linecap="round" stroke-linejoin="round"><rect x="4.5" y="2.5" width="15" height="19" rx="2.5"/><path d="M11 18.5h2"/></g></g><g class="tile"><title>Smart speaker</title><rect x="919.0" y="815.0" width="36" height="36" class="tbg"/><g transform="translate(926.5,822.5) scale(0.8750)" fill="none" class="ico" stroke-width="1.7" stroke-linecap="round" stroke-linejoin="round"><rect x="6" y="2.5" width="12" height="19" rx="3"/><circle cx="12" cy="14" r="3.5"/><circle cx="12" cy="7" r="1.2" fill="currentColor"/></g></g><g class="tile"><title>Laptop</title><rect x="968.0" y="815.0" width="36" height="36" class="tbg"/><g transform="translate(975.5,822.5) scale(0.8750)" fill="none" class="ico" stroke-width="1.7" stroke-linecap="round" stroke-linejoin="round"><rect x="5" y="5" width="14" height="10" rx="1.5"/><path d="M2.5 18.5h19l-1.5-3.5h-16z"/></g></g><g class="tile"><title>TV / streamer</title><rect x="1017.0" y="815.0" width="36" height="36" class="tbg"/><g transform="translate(1024.5,822.5) scale(0.8750)" fill="none" class="ico" stroke-width="1.7" stroke-linecap="round" stroke-linejoin="round"><rect x="2.5" y="4" width="19" height="12.5" rx="1.5"/><path d="M8 20l2-3.5M16 20l-2-3.5"/></g></g><g class="tile"><title>Phone</title><rect x="1066.0" y="815.0" width="36" height="36" class="tbg"/><g transform="translate(1073.5,822.5) scale(0.8750)" fill="none" class="ico" stroke-width="1.7" stroke-linecap="round" stroke-linejoin="round"><rect x="7" y="2.5" width="10" height="19" rx="2.5"/><path d="M11 18.5h2"/></g></g><g class="tile"><title>Desktop</title><rect x="1115.0" y="815.0" width="36" height="36" class="tbg"/><g transform="translate(1122.5,822.5) scale(0.8750)" fill="none" class="ico" stroke-width="1.7" stroke-linecap="round" stroke-linejoin="round"><rect x="3" y="4" width="18" height="12" rx="1.5"/><path d="M12 16v4M8 20h8"/></g></g><g class="tile"><title>Desktop</title><rect x="1164.0" y="815.0" width="36" height="36" class="tbg"/><g transform="translate(1171.5,822.5) scale(0.8750)" fill="none" class="ico" stroke-width="1.7" stroke-linecap="round" stroke-linejoin="round"><rect x="3" y="4" width="18" height="12" rx="1.5"/><path d="M12 16v4M8 20h8"/></g></g><g class="tile"><title>Game console</title><rect x="1213.0" y="815.0" width="36" height="36" class="tbg"/><g transform="translate(1220.5,822.5) scale(0.8750)" fill="none" class="ico" stroke-width="1.7" stroke-linecap="round" stroke-linejoin="round"><path d="M7 7.5h10a4.5 4.5 0 0 1 4.3 5.8l-1 3.2a2.4 2.4 0 0 1-4 .9L14.6 15.5H9.4l-1.7 1.9a2.4 2.4 0 0 1-4-.9l-1-3.2A4.5 4.5 0 0 1 7 7.5z"/><path d="M7.5 10.5v3M6 12h3"/><circle cx="16" cy="11" r=".9" fill="currentColor"/><circle cx="17.5" cy="13" r=".9" fill="currentColor"/></g></g><g class="tile"><title>Laptop</title><rect x="1262.0" y="815.0" width="36" height="36" class="tbg"/><g transform="translate(1269.5,822.5) scale(0.8750)" fill="none" class="ico" stroke-width="1.7" stroke-linecap="round" stroke-linejoin="round"><rect x="5" y="5" width="14" height="10" rx="1.5"/><path d="M2.5 18.5h19l-1.5-3.5h-16z"/></g></g><g class="tile"><title>Laptop</title><rect x="1311.0" y="815.0" width="36" height="36" class="tbg"/><g transform="translate(1318.5,822.5) scale(0.8750)" fill="none" class="ico" stroke-width="1.7" stroke-linecap="round" stroke-linejoin="round"><rect x="5" y="5" width="14" height="10" rx="1.5"/><path d="M2.5 18.5h19l-1.5-3.5h-16z"/></g></g><g class="tile"><title>Laptop</title><rect x="772.0" y="864.0" width="36" height="36" class="tbg"/><g transform="translate(779.5,871.5) scale(0.8750)" fill="none" class="ico" stroke-width="1.7" stroke-linecap="round" stroke-linejoin="round"><rect x="5" y="5" width="14" height="10" rx="1.5"/><path d="M2.5 18.5h19l-1.5-3.5h-16z"/></g></g><g class="tile"><title>Laptop</title><rect x="821.0" y="864.0" width="36" height="36" class="tbg"/><g transform="translate(828.5,871.5) scale(0.8750)" fill="none" class="ico" stroke-width="1.7" stroke-linecap="round" stroke-linejoin="round"><rect x="5" y="5" width="14" height="10" rx="1.5"/><path d="M2.5 18.5h19l-1.5-3.5h-16z"/></g></g><g class="tile"><title>Unidentified device</title><rect x="870.0" y="864.0" width="36" height="36" class="tbg"/><g transform="translate(877.5,871.5) scale(0.8750)" fill="none" class="ico" stroke-width="1.7" stroke-linecap="round" stroke-linejoin="round"><rect x="4" y="4" width="16" height="16" rx="4"/><path d="M9.8 9.6a2.3 2.3 0 1 1 3.3 2.1c-.7.4-1.1.9-1.1 1.8"/><circle cx="12" cy="16.3" r=".9" fill="currentColor"/></g></g><g class="tile"><title>Unidentified device</title><rect x="919.0" y="864.0" width="36" height="36" class="tbg"/><g transform="translate(926.5,871.5) scale(0.8750)" fill="none" class="ico" stroke-width="1.7" stroke-linecap="round" stroke-linejoin="round"><rect x="4" y="4" width="16" height="16" rx="4"/><path d="M9.8 9.6a2.3 2.3 0 1 1 3.3 2.1c-.7.4-1.1.9-1.1 1.8"/><circle cx="12" cy="16.3" r=".9" fill="currentColor"/></g></g></g>
<g class="zone zv3"><title>VLAN 3 · IoT Devices</title><rect x="756" y="1012" width="614" height="242" class="zbg"/><text x="774" y="1042" class="zidx">03</text><text x="808" y="1043" class="zname">IoT Devices</text><text x="1326" y="1041.5" class="zmeta" text-anchor="end">10.1.3.X  ·  10 DEVICES</text><g transform="translate(1346,1037) scale(0.95)" class="bcast" fill="none" stroke-width="1.8" stroke-linecap="round"><circle cx="0" cy="0" r="2" class="bdot"/><path class="w1" d="M-5,-4 a6.4,6.4 0 0 0 0,8 M5,-4 a6.4,6.4 0 0 1 0,8"/><path class="w2" d="M-9,-7 a11,11 0 0 0 0,14 M9,-7 a11,11 0 0 1 0,14"/></g><line x1="774" x2="1352" y1="1058" y2="1058" class="zrule"/><g class="named"><title>G4 Instant</title><rect x="806.0" y="1076.0" width="44" height="44" class="tbg"/><g transform="translate(815.0,1085.0) scale(1.0833)" fill="none" class="ico" stroke-width="1.7" stroke-linecap="round" stroke-linejoin="round"><rect x="3" y="5" width="18" height="14" rx="3.5"/><circle cx="12" cy="12" r="3.8"/><circle cx="12" cy="12" r="1.1" fill="currentColor"/></g><text x="828.0" y="1135.0" class="nname" text-anchor="middle">G4 Instant</text></g><g class="named"><title>G6 Instant</title><rect x="924.0" y="1076.0" width="44" height="44" class="tbg"/><g transform="translate(933.0,1085.0) scale(1.0833)" fill="none" class="ico" stroke-width="1.7" stroke-linecap="round" stroke-linejoin="round"><rect x="3" y="5" width="18" height="14" rx="3.5"/><circle cx="12" cy="12" r="3.8"/><circle cx="12" cy="12" r="1.1" fill="currentColor"/></g><text x="946.0" y="1135.0" class="nname" text-anchor="middle">G6 Instant</text></g><g class="named"><title>Front Door - Entry</title><rect x="1042.0" y="1076.0" width="44" height="44" class="tbg"/><g transform="translate(1051.0,1085.0) scale(1.0833)" fill="none" class="ico" stroke-width="1.7" stroke-linecap="round" stroke-linejoin="round"><rect x="7" y="2.5" width="10" height="19" rx="4"/><circle cx="12" cy="8" r="2"/><circle cx="12" cy="15.5" r="2.2"/></g><text x="1064.0" y="1135.0" class="nname" text-anchor="middle">Front Door</text><text x="1064.0" y="1148.0" class="nsub" text-anchor="middle">Entry</text></g><g class="named"><title>Front Door Chime</title><rect x="1160.0" y="1076.0" width="44" height="44" class="tbg"/><g transform="translate(1169.0,1085.0) scale(1.0833)" fill="none" class="ico" stroke-width="1.7" stroke-linecap="round" stroke-linejoin="round"><path d="M6 16V11a6 6 0 0 1 12 0v5l1.5 2h-15z"/><path d="M10 20.5h4"/></g><text x="1182.0" y="1135.0" class="nname" text-anchor="middle">Front Door Chime</text></g><g class="tile"><title>Printer</title><rect x="772.0" y="1190.0" width="36" height="36" class="tbg"/><g transform="translate(779.5,1197.5) scale(0.8750)" fill="none" class="ico" stroke-width="1.7" stroke-linecap="round" stroke-linejoin="round"><path d="M7 8V3.5h10V8"/><rect x="3" y="8" width="18" height="8.5" rx="2"/><path d="M7 14h10v6.5H7z"/></g></g><g class="tile"><title>Smart power strip</title><rect x="821.0" y="1190.0" width="36" height="36" class="tbg"/><g transform="translate(828.5,1197.5) scale(0.8750)" fill="none" class="ico" stroke-width="1.7" stroke-linecap="round" stroke-linejoin="round"><rect x="2.5" y="8" width="19" height="8" rx="2.5"/><path d="M7 11v2M11 11v2M15 11v2"/><circle cx="18.5" cy="12" r=".9" fill="currentColor"/></g></g><g class="tile"><title>Smart power strip</title><rect x="870.0" y="1190.0" width="36" height="36" class="tbg"/><g transform="translate(877.5,1197.5) scale(0.8750)" fill="none" class="ico" stroke-width="1.7" stroke-linecap="round" stroke-linejoin="round"><rect x="2.5" y="8" width="19" height="8" rx="2.5"/><path d="M7 11v2M11 11v2M15 11v2"/><circle cx="18.5" cy="12" r=".9" fill="currentColor"/></g></g><g class="tile"><title>Smart power strip</title><rect x="919.0" y="1190.0" width="36" height="36" class="tbg"/><g transform="translate(926.5,1197.5) scale(0.8750)" fill="none" class="ico" stroke-width="1.7" stroke-linecap="round" stroke-linejoin="round"><rect x="2.5" y="8" width="19" height="8" rx="2.5"/><path d="M7 11v2M11 11v2M15 11v2"/><circle cx="18.5" cy="12" r=".9" fill="currentColor"/></g></g><g class="tile"><title>Thermostat</title><rect x="968.0" y="1190.0" width="36" height="36" class="tbg"/><g transform="translate(975.5,1197.5) scale(0.8750)" fill="none" class="ico" stroke-width="1.7" stroke-linecap="round" stroke-linejoin="round"><circle cx="12" cy="12" r="9"/><circle cx="12" cy="12" r="5.5"/><path d="M12 6.5v2.5"/></g></g><g class="tile"><title>3D printer</title><rect x="1017.0" y="1190.0" width="36" height="36" class="tbg"/><g transform="translate(1024.5,1197.5) scale(0.8750)" fill="none" class="ico" stroke-width="1.7" stroke-linecap="round" stroke-linejoin="round"><path d="M4 3.5h16v17H4z"/><path d="M4 7h16"/><path d="M10 7v3h4V7M12 10v2"/><path d="M8 17.5h8"/></g></g></g>
<g class="zone zv4"><title>VLAN 4 · Servers</title><rect x="30" y="1077" width="614" height="242" class="zbg"/><text x="48" y="1107" class="zidx">04</text><text x="82" y="1108" class="zname">Servers</text><text x="626" y="1106.5" class="zmeta" text-anchor="end">10.1.4.X  ·  3 DEVICES</text><line x1="48" x2="626" y1="1123" y2="1123" class="zrule"/><g class="named"><title>RJB-UNAS-Pro</title><rect x="80.0" y="1141.0" width="44" height="44" class="tbg"/><g transform="translate(89.0,1150.0) scale(1.0833)" fill="none" class="ico" stroke-width="1.7" stroke-linecap="round" stroke-linejoin="round"><rect x="4" y="3" width="16" height="18" rx="2.5"/><path d="M7.5 8h9M7.5 12h9M7.5 16h9"/></g><text x="102.0" y="1200.0" class="nname" text-anchor="middle">RJB-UNAS-Pro</text></g><g class="tile"><title>Desktop</title><rect x="46" y="1255.0" width="36" height="36" class="tbg"/><g transform="translate(53.5,1262.5) scale(0.8750)" fill="none" class="ico" stroke-width="1.7" stroke-linecap="round" stroke-linejoin="round"><rect x="3" y="4" width="18" height="12" rx="1.5"/><path d="M12 16v4M8 20h8"/></g></g><g class="tile"><title>Desktop</title><rect x="95" y="1255.0" width="36" height="36" class="tbg"/><g transform="translate(102.5,1262.5) scale(0.8750)" fill="none" class="ico" stroke-width="1.7" stroke-linecap="round" stroke-linejoin="round"><rect x="3" y="4" width="18" height="12" rx="1.5"/><path d="M12 16v4M8 20h8"/></g></g></g>
<g class="zone zv20"><title>VLAN 20 · Home Lab Servers</title><rect x="756" y="1338" width="614" height="128" class="zbg"/><text x="774" y="1368" class="zidx">20</text><text x="808" y="1369" class="zname">Home Lab Servers</text><text x="1352" y="1367.5" class="zmeta" text-anchor="end">10.1.20.X  ·  5 DEVICES</text><line x1="774" x2="1352" y1="1384" y2="1384" class="zrule"/><g class="tile"><title>Server</title><rect x="772.0" y="1402.0" width="36" height="36" class="tbg"/><g transform="translate(779.5,1409.5) scale(0.8750)" fill="none" class="ico" stroke-width="1.7" stroke-linecap="round" stroke-linejoin="round"><rect x="4" y="3.5" width="16" height="7" rx="1.5"/><rect x="4" y="13.5" width="16" height="7" rx="1.5"/><circle cx="7.5" cy="7" r=".9" fill="currentColor"/><circle cx="7.5" cy="17" r=".9" fill="currentColor"/><path d="M11 7h6M11 17h6"/></g></g><g class="tile"><title>Server</title><rect x="821.0" y="1402.0" width="36" height="36" class="tbg"/><g transform="translate(828.5,1409.5) scale(0.8750)" fill="none" class="ico" stroke-width="1.7" stroke-linecap="round" stroke-linejoin="round"><rect x="4" y="3.5" width="16" height="7" rx="1.5"/><rect x="4" y="13.5" width="16" height="7" rx="1.5"/><circle cx="7.5" cy="7" r=".9" fill="currentColor"/><circle cx="7.5" cy="17" r=".9" fill="currentColor"/><path d="M11 7h6M11 17h6"/></g></g><g class="tile"><title>Server</title><rect x="870.0" y="1402.0" width="36" height="36" class="tbg"/><g transform="translate(877.5,1409.5) scale(0.8750)" fill="none" class="ico" stroke-width="1.7" stroke-linecap="round" stroke-linejoin="round"><rect x="4" y="3.5" width="16" height="7" rx="1.5"/><rect x="4" y="13.5" width="16" height="7" rx="1.5"/><circle cx="7.5" cy="7" r=".9" fill="currentColor"/><circle cx="7.5" cy="17" r=".9" fill="currentColor"/><path d="M11 7h6M11 17h6"/></g></g><g class="tile"><title>Server</title><rect x="919.0" y="1402.0" width="36" height="36" class="tbg"/><g transform="translate(926.5,1409.5) scale(0.8750)" fill="none" class="ico" stroke-width="1.7" stroke-linecap="round" stroke-linejoin="round"><rect x="4" y="3.5" width="16" height="7" rx="1.5"/><rect x="4" y="13.5" width="16" height="7" rx="1.5"/><circle cx="7.5" cy="7" r=".9" fill="currentColor"/><circle cx="7.5" cy="17" r=".9" fill="currentColor"/><path d="M11 7h6M11 17h6"/></g></g><g class="tile"><title>Server</title><rect x="968.0" y="1402.0" width="36" height="36" class="tbg"/><g transform="translate(975.5,1409.5) scale(0.8750)" fill="none" class="ico" stroke-width="1.7" stroke-linecap="round" stroke-linejoin="round"><rect x="4" y="3.5" width="16" height="7" rx="1.5"/><rect x="4" y="13.5" width="16" height="7" rx="1.5"/><circle cx="7.5" cy="7" r=".9" fill="currentColor"/><circle cx="7.5" cy="17" r=".9" fill="currentColor"/><path d="M11 7h6M11 17h6"/></g></g></g>
<text x="30" y="1522" class="cap">OTHER NETWORKS  ·  NO CLIENT DEVICES</text><g class="icell"><title>VLAN 5 · Local Devices · 10.1.5.X</title><rect x="30" y="1536" width="327.5" height="40"/><text x="46" y="1561" class="zidx">05</text><text x="80" y="1561.5" class="iname">Local Devices</text><text x="341.5" y="1561" class="imeta" text-anchor="end">10.1.5.X</text></g><g class="icell"><title>VLAN 10 · Guest Network · 10.1.10.X</title><rect x="367.5" y="1536" width="327.5" height="40"/><text x="383.5" y="1561" class="zidx">10</text><text x="417.5" y="1561.5" class="iname">Guest Network</text><text x="655" y="1561" class="imeta" text-anchor="end">10.1.10.X</text><g transform="translate(673,1556) scale(0.8)" class="bcast" fill="none" stroke-width="1.8" stroke-linecap="round"><circle cx="0" cy="0" r="2" class="bdot"/><path class="w1" d="M-5,-4 a6.4,6.4 0 0 0 0,8 M5,-4 a6.4,6.4 0 0 1 0,8"/><path class="w2" d="M-9,-7 a11,11 0 0 0 0,14 M9,-7 a11,11 0 0 1 0,14"/></g></g>
<line x1="30" x2="1370" y1="1606" y2="1606" class="zrule"/><g class="legend"><path d="M30,1636 h34" class="wire sp10"/><path d="M30,1636 h34" class="fl sp10 flow s10"/><text x="76" y="1640" class="leg">10 GbE</text><path d="M253.3,1636 h34" class="wire sp25"/><path d="M253.3,1636 h34" class="fl sp25 flow s25"/><text x="299.3" y="1640" class="leg">2.5 GbE</text><path d="M476.7,1636 h34" class="wire sp1"/><path d="M476.7,1636 h34" class="fl sp1 flow s1"/><text x="522.7" y="1640" class="leg">1 GbE</text><path d="M700,1636 h34" class="wire spfe"/><path d="M700,1636 h34" class="fl spfe flow sfe"/><text x="746" y="1640" class="leg">Fast Ethernet</text><g transform="translate(933.3,1636) scale(0.8)" class="bcast" fill="none" stroke-width="1.8" stroke-linecap="round"><circle cx="0" cy="0" r="2" class="bdot"/><path class="w1" d="M-5,-4 a6.4,6.4 0 0 0 0,8 M5,-4 a6.4,6.4 0 0 1 0,8"/><path class="w2" d="M-9,-7 a11,11 0 0 0 0,14 M9,-7 a11,11 0 0 1 0,14"/></g><text x="953.3" y="1640" class="leg">Wi-Fi on this VLAN</text><g class="aptags"><rect x="1146.7" y="1627.5" width="24" height="17"/><text x="1158.7" y="1640" text-anchor="middle">02</text></g><text x="1180.7" y="1640" class="leg">VLANs an AP broadcasts</text></g>
</g></svg>
